<svg id="e4AEtXmSJov1" xmlns="http://www.w3.org/2000/svg" xmlns:xlink="http://www.w3.org/1999/xlink" viewBox="0 0 1987 1024" shape-rendering="geometricPrecision" text-rendering="geometricPrecision"><path d="M199.087,284.803c-.214.566-.298,103.118-.179,227.889l.209,226.851h310.476l.417-455.778h-155.263c-123.45,0-155.347.214-155.66,1.038Zm422.977,4.327c-29.359,5.33-46.83,23.899-48.081,51.117-1.277,27.64,11.709,39.224,56.462,50.381c40.973,10.218,49.244,16.309,50.729,37.366c4.014,56.969-94.002,62.557-108.632,6.19-2.325-8.952-2.742-8.46-7.297,8.584-4.804,17.983-5.435,15.862,6.468,21.768c34.639,17.188,64.331,19.617,92.706,7.586c30.014-12.727,44.088-47.704,30.183-75.011-7.516-14.754-16.671-19.354-56.675-28.469-32.727-7.456-44.341-16.219-45.687-34.46-2.429-32.955,28.549-49.756,64.793-35.141c14.987,6.041,24.634,15.603,28.449,28.191c1.883,6.214,1.734,5.946,2.533,4.525.392-.7,2.245-6.845,4.123-13.661l3.408-12.389-1.903-1.545c-14.083-11.426-49.949-18.956-71.578-15.032Zm168.069-.05c-92.457,17.595-93.585,170.548-1.396,189.206c66.556,13.467,118.135-61.057,92.457-133.599-13.651-38.569-53.317-62.791-91.061-55.607Zm591.27,1.61c-.671,1.61-11.883,27.63-24.908,57.818-13.03,30.193-26.333,61.042-29.562,68.558-11.644,27.064-24.788,50.754-30.094,54.231-4.362,2.856-2.171,3.284,17.024,3.308c19.091.025,20.462-.164,17.074-2.384-13.651-8.947-12.33-20.68,7.69-68.404l7.471-17.799l29.006-.219c26.984-.204,29.061-.114,29.781,1.242.427.8,5.32,13.144,10.869,27.426c15.588,40.108,17.367,50.014,10.124,56.442-1.917,1.704-3.487,3.229-3.487,3.393c0,.273,44.142.268,45.811,0c.378-.06-1.575-2.375-4.347-5.141-8.311-8.311-11.555-15.549-58.434-130.335-21.987-53.839-21.793-53.456-24.018-48.136Zm-473.16,2.33c.005.606,1.47,2.524,3.269,4.262c6.513,6.319,6.254,3.04,6.254,79.626c0,84.4-.849,90.664-12.956,95.681-4.337,1.793-1.719,2.017,23.79,2.017c26.274,0,27.466-.154,21.584-2.757-10.844-4.794-12.548-12.071-12.548-53.536v-29.796l23.184-.065c57.366-.154,86.58-15.39,88.746-46.278c1.694-24.242-14.356-40.322-47.764-47.843-9.91-2.235-93.56-3.403-93.56-1.311Zm155.888.437c-.323.844-.07,1.54.651,1.783c8.226,2.732,8.991,9.235,9.016,76.7.03,78.503-1.555,92.472-11.376,100.569-3.542,2.921-3.005,3.06,9.751,2.529c5.693-.238,14.823-.243,20.288-.01c12.677.541,12.543.611,7.819-4.113-7.138-7.138-8.216-14.873-8.226-59.025l-.01-31.256h99.322l.551,2.206c.81,3.214-.293,61.479-1.321,70.242-1.053,8.937-4.54,16.945-8.356,19.2-2.827,1.674-2.757,3.229.134,2.991c4.958-.407,37.332-.248,38.032.184c2.851,1.759,3.04-1.123.248-3.76-9.275-8.743-9.801-13.894-9.801-95.612c0-76.357-.258-72.949,5.966-78.935c4.729-4.545,3.999-5.181-4.724-4.148-6.304.75-19.9.422-25.588-.611-4.496-.815-4.933,1.023-1.043,4.401c5.777,5.022,6.075,6.989,6.547,43.362.288,22.603.139,31.624-.551,32.92l-.954,1.778-98.046-.427-.219-31.013c-.263-37.6.556-43.477,6.552-47.018c4.312-2.548,2.722-3.989-3.87-3.517-7.993.571-21.54.452-26.299-.233-3.284-.477-4.054-.333-4.496.815Zm179.907-.686c-.288.467.641,1.704,2.062,2.752c7.471,5.494,7.571,6.652,7.183,84.285-.392,78.91-.676,81.573-9.672,91.334l-3.194,3.462h21.853c12.022,0,21.857-.094,21.857-.209s-1.475-1.54-3.279-3.169c-8.013-7.243-8.405-11.162-8.902-88.647-.502-78.324-.109-83.024,7.273-86.839c5.767-2.986,2.841-3.562-14.133-2.807-4.327.194-10.715.045-14.197-.333-4.158-.447-6.508-.392-6.85.169ZM500.074,511.863v218.162h-291.435v-436.325h291.435v218.162ZM821.856,296.522c28.017,9.011,42.528,39.706,42.498,89.909-.03,55.915-21.699,87.182-60.431,87.182-38.345,0-58.782-28.464-60.212-83.868-1.808-70.088,30.446-108.567,78.145-93.222Zm161.731,2.98c26.582,2.707,39.09,11.873,42.309,30.988c3.517,20.889-5.489,38.36-23.681,45.935-14.053,5.852-43.765,8.375-61.266,5.196l-3.313-.601-.214-40.138c-.119-22.081-.04-40.61.179-41.177.492-1.287,33.929-1.436,45.985-.204Zm401.159,36.84c3.929,9.563,9.379,22.727,12.106,29.259c2.727,6.527,4.759,12.399,4.516,13.04-.676,1.759-50.839,1.734-51.514-.025-.253-.656,4.665-12.667,10.924-26.701c6.259-14.029,12.27-27.521,13.358-29.98c2.519-5.688,2.141-6.205,10.611,14.406ZM320.823,341.856c-46.06,8.634-72.701,54.405-62.552,107.464c7.749,40.496,38.221,68.866,78.806,73.372c7.009.78,6.488-2.474,6.503,40.734l.015,38.32l18.629-.467.825-77.743l7.869-1.103c34.252-4.824,58.876-22.394,72.368-51.648c14.317-31.038,12.444-70.351-4.59-96.446-27.988-42.87-82.105-44.872-93.192-3.448-1.227,4.585-1.441,13.159-1.853,73.635-.258,37.64-.745,68.712-1.078,69.05-.333.333-3.274-.378-6.527-1.58-31.018-11.45-45.727-39.04-45.757-85.825-.03-44.266,14.207-72.82,39.438-79.094c1.927-.482,2.275-.998,2.275-3.373c0-3.174-2.181-3.537-11.177-1.848Zm68.692,21.45c34.137,12.777,45.985,90.073,19.334,126.128-8.778,11.868-37.287,27.148-45.081,24.157-1.098-.422-1.212-8.549-.984-68.578l.263-68.106l1.922-4.247c4.595-10.154,13.418-13.517,24.545-9.354ZM855.671,544.932c-33.203,6.572-53.928,35.464-46.338,64.599c5.022,19.279,18.181,27.56,60.411,38.017c40.411,10.005,50.322,20.551,45.215,48.116-9.265,50.044-100.405,41.902-108.94-9.727-1.058-6.403-1.724-4.992-7.064,14.972-4.029,15.077-4.744,13.418,8.589,19.98c62.955,30.973,127.052,7.953,126.709-45.508-.174-27.014-13.666-40.377-48.365-47.903-33.874-7.347-43.283-10.944-51.713-19.796-14.734-15.464-7.099-47.123,13.214-54.798c28.345-10.705,67.813,6.527,73.088,31.907c1.252,6.026,2.802,2.628,8.057-17.665c1.843-7.119,2.464-6.309-9.265-12.136-19.155-9.518-45.384-13.666-63.6-10.059Zm-283.566,3.974c0,.631,1.152,1.997,2.568,3.045c6.413,4.739,6.125.974,6.125,79.964c0,82.577-.238,85.115-8.808,94.409-1.759,1.908-3.199,3.616-3.199,3.79c0,.179,9.687.323,21.525.323c22.449,0,23.02-.089,19.155-2.946-8.495-6.284-8.644-7.759-8.996-90.425-.353-81.777-.571-78.781,6.135-84.812c4.958-4.461,4.222-4.764-8.808-3.651-5.514.472-10.482.715-11.033.541-3.577-1.118-14.664-1.297-14.664-.238Zm57.748-.546c-1.138,1.143-.651,1.734,3.557,4.352c4.923,3.06,7.839,8.46,9.16,16.949c1.485,9.533.482,130.668-1.138,137.369-2.563,10.621-6.259,16.562-12.821,20.63-4.411,2.737-3.532,2.881,17.178,2.827c21.033-.055,21.52-.139,16.959-2.956-5.902-3.646-10.213-12.722-11.922-25.096-1.113-8.038-1.257-132.203-.154-132.203c1.093,0,22.473,27.009,41.614,52.572c18.842,25.166,59.308,82.611,72.443,102.834c6.13,9.448,7.849,10.879,9.001,7.491.348-1.028.884-37.257,1.192-80.52.502-69.745.72-79.243,1.952-83.868c2.285-8.609,5.653-13.77,10.7-16.403c5.986-3.13,2.375-4.774-8.356-3.8-4.843.437-11.753.457-16.453.04-4.456-.392-8.942-.517-9.965-.278-1.977.462-2.623,2.891-.77,2.891c4.451,0,11.634,11.421,14.396,22.886c1.52,6.314,2.722,114.548,1.272,114.548-.392,0-2.548-2.514-4.794-5.589-5.569-7.62-38.261-51.554-64.539-86.725-20.501-27.436-26.467-35.906-31.053-44.102l-1.977-3.537-12.051.129c-6.627.07-14.471-.139-17.431-.472-2.961-.328-5.663-.318-6.001.03Zm486.205.377c0,.477,1.451,2.245,3.229,3.934c6.17,5.872,5.996,3.328,5.643,82.279-.363,81.022-.596,83.337-9.344,91.816-1.56,1.515-2.841,2.961-2.841,3.214c0,.248,9.687.457,21.525.457c22.424,0,22.995-.084,19.21-2.782-8.45-6.016-8.644-7.958-9.056-89.119-.412-81.966-.551-79.904,5.728-85.865c5.112-4.853,4.371-5.211-8.44-4.083-4.938.432-11.57.462-15.32.07-8.937-.934-10.333-.924-10.333.079Zm220.229.293c0,.75.939,1.793,2.091,2.32c2.265,1.033,4.913,4.814,6.388,9.125.641,1.863,1.093,22.399,1.441,65.23.616,74.842,1.093,77.932,14.262,92.343c20.804,22.767,81.583,24.033,101.866,2.126c15.002-16.209,17.168-27.62,18.003-94.886.765-61.941.974-63.337,10.76-71.767c5.738-4.938,5.703-4.958-8.475-4.689-6.945.134-15.325-.07-18.629-.442-6.999-.795-8.132.522-3.12,3.621c11.828,7.307,13.661,17.153,13.641,73.277-.02,59.487-3.095,76.009-16.731,89.859-19.155,19.453-59.11,19.374-77.192-.154-14.52-15.688-16.403-27.073-15.931-96.332.392-58.355.874-61.782,9.339-66.78c1.61-.949,2.782-2.146,2.608-2.658-.318-.939-2.007-.989-19.622-.571-4.784.114-11.396-.06-14.699-.392-5.266-.522-6.001-.427-6.001.77Zm334.986.363c-.238.387,1.038,2.131,2.832,3.885c6.443,6.294,6.19,3.035,6.185,79.05-.005,81.677-.626,86.963-10.973,93.823-1.942,1.287-3.318,2.687-3.06,3.105.785,1.272,137.429,1.008,138.417-.268.954-1.227,9.334-33,9.334-35.394c0-2.697-1.321-1.913-4.128,2.464-11.878,18.509-37.073,27.342-78.006,27.342-29.493,0-30.491-1.058-32.155-34.137-.487-9.687-.775-25.618-.636-35.409l.253-17.799l17.387-.253c39.8-.576,57.992,4.769,62.473,18.36c2.086,6.309,2.524,2.673,2.524-21.003c0-25.856-.229-26.989-3.815-18.996-5.807,12.946-13.84,15.067-55.384,14.664l-23.184-.224v-72.86h29.806c44.207,0,55.424,3.875,68.772,23.76c2.618,3.895,4.158,5.559,4.327,4.67.238-1.217-3.701-19.597-6.622-30.913l-1.068-4.138-61.424-.214c-33.78-.114-61.613.104-61.852.487ZM955.048,550.57c-1.197,3.651-7.104,30.72-6.865,31.435.164.487,2.275-1.788,4.699-5.052c13.691-18.47,52.16-29.304,60.237-16.969c2.295,3.502,2.295,127.995,0,142.635-2.633,16.82-5.579,23.184-11.704,25.28-6.413,2.196-3.452,2.538,21.843,2.538c14.078,0,25.449-.144,25.275-.318-.174-.179-2.096-1.48-4.277-2.901-10.064-6.557-10.288-8.48-10.74-92.502-.457-84.032-1.326-78.434,12.27-79.223c20-1.157,42.443,9.27,50.883,23.641c2.23,3.79,3.964,4.675,3.244,1.654-.243-1.023-1.739-7.64-3.328-14.694-1.585-7.059-3.075-13.671-3.313-14.699l-.427-1.863h-68.732c-54.251,0-68.796.219-69.065,1.038Zm221.942.413c-1.495,4.913-7.119,30.427-6.865,31.177.169.497,1.57-.959,3.115-3.234c10.427-15.39,31.112-24.759,51.758-23.442c12.354.785,11.838-2.091,11.883,66.079.06,87.177-1.903,102.318-13.775,106.401-6.19,2.126-3.08,2.474,22.036,2.474c14.078,0,25.454-.144,25.28-.318-.174-.179-2.101-1.48-4.277-2.901-10.059-6.547-10.333-8.932-10.765-93.237-.427-83.148-1.267-77.634,11.972-78.483c20.139-1.292,41.614,8.644,51.286,23.725c1.56,2.439,3.025,4.252,3.249,4.029.343-.343-3.611-18.892-6.443-30.198l-.879-3.522h-68.563c-64.579,0-68.593.084-69.01,1.451Zm334.519,0c-.318,1.143-4.138,17.943-6.771,29.806-.661,2.976.666,2.166,3.313-2.022c11.843-18.743,50.853-31.038,61.3-19.324c1.614,1.813,1.659,3.209,1.903,62.001.363,87.494-1.217,100.544-12.871,106.098-2.389,1.138-4.347,2.255-4.347,2.484-.005.224,11.545.412,25.663.412c26.984,0,27.684-.079,22.275-2.519-11.058-4.987-12.335-15.747-12.33-104.285c0-71.255-.72-67.5,13.045-68.126c19.796-.904,40.148,8.326,49.656,22.528c2.116,3.149,3.979,5.325,4.143,4.829.248-.75-5.449-27.014-6.92-31.882-.407-1.366-4.421-1.451-69.04-1.451-64.634,0-68.632.084-69.02,1.451ZM428.784,642.501c-.73.556-1.624,1.937-1.982,3.07-.571,1.798-.492,1.922.626.998c1.316-1.093,5.673,9.125,4.421,10.372-.273.278.015,1.093.641,1.813c2.434,2.802,3.378,7.68,1.714,8.897-1.321.964-.889,1.098,3.408,1.053c3.621-.04,4.451-.243,3.144-.77-1.391-.561-2.697-3.492-6.07-13.606-2.365-7.094-4.362-12.881-4.436-12.866s-.735.482-1.465,1.038ZM270.879,644.18c-4.178,4.446-2.067,9.066,5.926,12.965c6.527,3.189,7.382,7.685,2.032,10.725-2.837,1.61-6.686-.005-8.43-3.532l-1.292-2.618-.02,2.598c-.035,5.166,9.622,6.766,13.219,2.191c3.905-4.958,1.952-9.91-5.117-13.01-6.662-2.921-8.644-8.42-3.746-10.392c1.182-.477,1.371-.76.532-.79-.715-.03-2.116.81-3.105,1.863Zm6.572-1.684c.179.099,1.346,1.083,2.598,2.186l2.275,2.007v-2.007c0-1.654-.452-2.037-2.598-2.186-1.426-.104-2.449-.104-2.275,0Zm23.417,1.341c-11.316,6.9-7.481,23.388,5.882,25.28l3.313.472-3.179-1.038c-11.098-3.616-12.911-21.296-2.618-25.504c1.078-.442,1.222-.695.412-.73-.681-.025-2.399.656-3.81,1.52Zm9.195-.78c8.882,3.701,10.606,19.225,2.668,24.063-1.47.899-2.156,1.629-1.525,1.634c4.183.01,10.035-7.521,10.035-12.916c0-5.723-6.513-13.661-11.093-13.522-1.704.05-1.709.065-.084.74Zm22.558.06c1.808.725,1.863,1.093,1.863,12.394s-.055,11.664-1.863,12.389c-1.386.561-.487.745,3.522.72c3.487-.02,4.65-.233,3.308-.606-2.325-.646-3.666-22.086-1.54-24.649.745-.894.149-1.093-3.12-1.048-3.254.04-3.671.194-2.171.8Zm10.7.353c5.037,2.191,5.926,7.476,1.893,11.247l-2.524,2.355l2.603-.745c7.556-2.166,7.67-11.108.169-13.189-4.287-1.192-5.291-1.038-2.141.333Zm17.452-.353c1.813.725,1.863,1.078,1.863,12.722c0,11.758-.035,11.982-1.863,12.335-1.023.194.373.363,3.105.373s4.317-.154,3.517-.363c-1.212-.318-1.446-1.366-1.446-6.527v-6.145h15.727v5.822c0,5.261-.179,5.892-1.863,6.567-1.406.566-.646.74,3.105.705c2.732-.02,4.367-.204,3.626-.397-3.358-.899-3.378-24.5-.02-25.389.75-.204-.874-.363-3.606-.363s-4.312.169-3.517.378c1.783.467,2.469,2.976,2.126,7.774l-.263,3.661-15.315.477v-5.44c0-4.868.194-5.519,1.863-6.19c1.391-.561.512-.75-3.522-.75-4.029,0-4.913.189-3.517.75Zm37.962-.045c3.428,1.386,3.433,24.441.01,25.116-.964.189.671.368,3.631.402c3.984.045,4.898-.134,3.517-.69-1.808-.725-1.863-1.088-1.863-12.389s.055-11.669,1.863-12.394c1.396-.561.512-.75-3.517-.75-3.77,0-4.858.214-3.641.705Zm25.563,9.27c-2.399,7.879-5.713,14.948-7.307,15.593-1.346.541-.77.705,2.36.671c2.275-.02,3.487-.214,2.687-.422-2.211-.576-.392-10.189,1.927-10.189.392,0,.522-.497.293-1.103-.233-.601-.025-2.146.462-3.423.487-1.282.72-2.494.522-2.692s-.626.507-.944,1.565ZM307.669,685.585c-.83,3.1-.566,3.388,1.411,1.53c1.053-.989,2.792-1.798,3.865-1.798c2.692,0,1.853-.502-1.768-1.063-2.608-.402-3.09-.214-3.507,1.331Zm18.951-1.098c-3.11.556-3.154.601-.681.71c1.764.079,3.194.835,4.347,2.3c1.575,2.002,1.714,2.042,1.714.482c0-2.106-.825-4.362-1.535-4.203-.293.065-2.022.383-3.845.71Zm33.532-.561c0,.084-.363,1.431-.81,2.981l-.81,2.822l2.305-2.206c1.267-1.212,3.184-2.206,4.257-2.206c1.078,0,1.803-.134,1.61-.298-.373-.323-6.552-1.356-6.552-1.093Zm18.628.561c-2.648.472-2.846.616-.994.71c1.336.07,3.224,1.078,4.471,2.394l2.156,2.275-.532-2.067c-.288-1.138-.532-2.538-.537-3.105-.005-.571-.293-.984-.631-.919-.343.065-2.111.383-3.934.71Zm48.151-.154c-.174.313-.556,1.58-.854,2.817l-.537,2.245l2.042-2.042c1.167-1.162,3.005-2.037,4.287-2.037c1.232,0,2.091-.134,1.898-.298-.74-.636-6.542-1.217-6.835-.686Zm18.912.154c-2.479.442-2.752.621-1.093.71c1.401.075,3.03,1.108,4.431,2.807c1.222,1.48,1.992,2.012,1.719,1.177-.278-.835-.502-2.419-.502-3.522c0-1.098-.283-1.947-.621-1.883-.343.065-2.111.383-3.934.71Zm-217.358.795c3.015,1.908,2.091,23.596-1.058,24.863-1.326.537-.368.73,3.567.73c4.029,0,4.913-.189,3.517-.75-2.186-.874-2.951-22.563-.869-24.644.775-.775.179-.989-2.687-.979-2.603.005-3.328.238-2.469.78Zm19.066.859c2.648,2.648,2.499,21.674-.184,23.551-1.788,1.252-1.739,1.287,1.714,1.287c3.234,0,3.438-.114,2.255-1.302-1.426-1.426-2.002-21.584-.591-20.71.387.238,4.58,5.286,9.314,11.207l8.604,10.77.417-12.434c.328-9.826.671-12.598,1.654-13.214.889-.561.194-.79-2.459-.795-3.587-.015-3.646.025-1.863,1.272c1.848,1.297,2.991,18.643,1.217,18.554-.343-.02-4.093-4.491-8.336-9.935-7.188-9.235-7.908-9.905-10.556-9.905h-2.841l1.654,1.654Zm37.401.264c-3.845,4.093-1.823,9.22,4.744,12.046c7.258,3.12,9.279,11.704,2.757,11.704-.507,0-1.118.318-1.361.705-1.053,1.704,3.85-.283,5.325-2.161c3.825-4.858,1.525-10.874-4.983-13.035-6.244-2.071-8.36-6.13-4.968-9.523.909-.909,1.346-1.654.969-1.654-.373,0-1.49.864-2.484,1.917Zm8.137-.825c.681.581,1.709,1.575,2.275,2.216.864.969,1.038.82,1.038-.894c0-1.649-.447-2.086-2.28-2.211-1.932-.134-2.086,0-1.033.889Zm24.426,11.495v12.588l-2.071.576c-1.272.353.164.566,3.726.546c3.189-.015,4.938-.194,3.895-.392-1.903-.368-1.903-.383-1.659-13.139l.248-12.767h-4.138v12.588Zm25.528-11.545c2.638,1.927,1.649,23.944-1.108,24.709-1.292.363.104.581,3.726.596c3.189.005,5.236-.184,4.555-.427-2.822-1.008-3.313-2.971-3.313-13.189c0-8.107.263-10.392,1.302-11.43c1.182-1.182.944-1.302-2.643-1.302-3.368,0-3.736.149-2.519,1.043Zm26.632,11.545v12.588l-2.071.576c-1.272.353.164.566,3.726.546c3.189-.015,4.958-.194,3.934-.387-2.548-.492-2.871-2.419-2.553-15.062.263-10.392.204-10.849-1.381-10.849s-1.654.551-1.654,12.588Zm24.256-11.594c.631.631.994,3.86.998,8.902.005,9.275,1.033,13.696,3.557,15.265c2.31,1.436,7.471,2.444,6.781,1.321-.278-.447-1.202-.815-2.052-.815-4.694,0-7.864-22.25-3.532-24.773c1.128-.656.541-.849-2.648-.869s-3.88.194-3.105.969Zm18.733.308c1.018,1.013,1.302,3.184,1.302,9.895c0,9.771-.889,12.553-4.53,14.143-1.431.621-1.903,1.103-1.103,1.123c4.426.099,6.026-3.373,6.463-14.038.358-8.738.626-10.233,2.022-11.252c1.48-1.078,1.326-1.172-1.922-1.172-3.209,0-3.413.119-2.23,1.302Zm23.492,11.465c.243,12.757.243,12.772-1.659,13.139-1.043.199.522.387,3.482.422c4.068.045,4.913-.124,3.477-.705-1.888-.755-1.903-.889-1.659-13.194l.248-12.429h-4.138l.248,12.767Zm26.184-11.465c2.365,2.365,1.878,23.358-.561,24.336-1.267.512,1.376.77,8.301.805l10.164.05.805-2.121c1.311-3.443.954-3.691-1.61-1.128-2.529,2.529-8.798,3.418-11.599,1.649-1.525-.969-2.31-10.348-.934-11.202.725-.447.725-.874-.005-1.754-.606-.73-.84-3.179-.626-6.552l.343-5.385h-2.787c-2.533,0-2.673.119-1.49,1.302Zm12.479-.338c.914.507,2.494,1.679,3.522,2.603c1.987,1.803,2.489.815,1.003-1.967-.581-1.083-1.719-1.59-3.517-1.575-2.394.025-2.499.119-1.008.939Zm-1.242,9.364c0,.666-1.207,1.565-2.687,1.992-2.588.75-2.608.78-.457.854c1.232.04,2.618.725,3.08,1.52.671,1.152.849.725.869-2.067.015-1.937-.164-3.522-.387-3.522-.229,0-.417.551-.417,1.222ZM283.218,706.434c-.07,2.593,3.582,5.216,5.936,4.267.681-.273.586-.442-.268-.482-1.406-.07-4.406-3.005-5.146-5.032-.253-.686-.487-.124-.522,1.247Z" fill="#f2f0f8"/></svg>